<?xml version="1.0" standalone="no"?>
<!DOCTYPE svg PUBLIC "-//W3C//DTD SVG 20010904//EN"
 "http://www.w3.org/TR/2001/REC-SVG-20010904/DTD/svg10.dtd">
<svg version="1.0" xmlns="http://www.w3.org/2000/svg"
 width="512.000000pt" height="512.000000pt" viewBox="0 0 512.000000 512.000000"
 preserveAspectRatio="xMidYMid meet">

<g transform="translate(0.000000,512.000000) scale(0.100000,-0.100000)"
fill="#000000" stroke="none">
<path d="M877 4203 l-28 -4 4 -1177 c3 -1294 -1 -1209 64 -1371 90 -225 289
-425 515 -515 182 -74 140 -71 1138 -71 l895 0 89 23 c401 102 673 419 716
833 6 63 10 508 10 1190 l0 1089 -37 1 c-299 11 -588 -77 -820 -250 -61 -46
-467 -424 -820 -764 l-42 -40 -49 44 c-27 24 -203 191 -393 372 -437 416 -531
486 -743 562 -155 56 -400 94 -499 78z m2901 -1573 c-4 -694 -4 -706 -25 -770
-28 -82 -69 -147 -130 -205 -50 -48 -145 -100 -202 -112 -31 -6 -34 -4 -27 13
4 10 20 53 34 94 l27 75 3 539 3 539 -40 -34 c-22 -19 -130 -117 -240 -219
l-200 -185 -1 -135 c-2 -341 -8 -443 -29 -502 -39 -112 -118 -199 -230 -252
-60 -28 -75 -31 -166 -31 -89 0 -106 3 -157 28 -74 36 -157 112 -191 174 -50
92 -57 145 -57 414 0 136 -3 261 -6 278 -5 25 -51 73 -218 228 -116 108 -221
206 -234 217 l-23 20 3 -549 3 -550 26 -65 c14 -36 30 -74 34 -84 8 -17 5 -19
-26 -13 -110 22 -243 127 -298 235 -61 120 -60 114 -63 959 -3 731 -2 770 14
758 10 -6 284 -267 609 -578 l592 -567 219 213 c121 116 394 380 606 585 l387
372 3 -92 c2 -51 1 -410 0 -798z"/>
</g>
</svg>
